<svg width="761" height="597" viewBox="0 0 761 597" fill="none" xmlns="http://www.w3.org/2000/svg">
<g clip-path="url(#clip0)">
<path fill-rule="evenodd" clip-rule="evenodd" d="M565.762 -17.2601V159.564H564.79V-17.2601H565.762Z" fill="white"/>
<path d="M606.855 293.887C630.759 269.989 630.759 231.242 606.855 207.344C582.95 183.445 544.192 183.445 520.287 207.344C496.383 231.242 496.383 269.989 520.287 293.887C544.192 317.786 582.95 317.786 606.855 293.887Z" fill="#01203E"/>
<path fill-rule="evenodd" clip-rule="evenodd" d="M608.809 205.39C633.793 230.367 633.793 270.864 608.809 295.841C583.825 320.818 543.317 320.818 518.333 295.841C493.349 270.864 493.349 230.367 518.333 205.39C543.317 180.413 583.825 180.413 608.809 205.39ZM606.855 207.344C630.759 231.242 630.759 269.989 606.855 293.887C582.95 317.786 544.192 317.786 520.287 293.887C496.383 269.989 496.383 231.242 520.287 207.344C544.192 183.445 582.95 183.445 606.855 207.344Z" fill="black"/>
<path opacity="0.16" d="M564.541 297.776C595.096 297.776 619.865 275.353 619.865 247.692C619.865 220.031 595.096 197.607 564.541 197.607C533.987 197.607 509.218 220.031 509.218 247.692C509.218 275.353 533.987 297.776 564.541 297.776Z" fill="white"/>
<path d="M572.836 175.377H569.933V166.007C569.933 163.188 567.61 160.866 564.79 160.866C561.97 160.866 559.648 163.188 559.648 166.007V175.377H556.745V166.007C556.745 161.612 560.311 157.964 564.79 157.964C569.269 157.964 572.836 161.612 572.836 166.007V175.377V175.377Z" fill="#1E1C1C"/>
<path d="M569.353 170.07H559.814C557.077 170.07 554.754 172.309 554.754 175.129V186.986H574.329V175.129C574.329 172.392 572.09 170.07 569.353 170.07Z" fill="#F9B34C"/>
<path fill-rule="evenodd" clip-rule="evenodd" d="M551.991 189.75V175.129C551.991 170.753 555.581 167.307 559.814 167.307H569.352C573.674 167.307 577.092 170.925 577.092 175.129V189.75H551.991ZM574.329 175.129C574.329 172.392 572.09 170.07 569.352 170.07H559.814C557.077 170.07 554.754 172.309 554.754 175.129V186.986H574.329V175.129Z" fill="black"/>
<path opacity="0.37" d="M563.712 185.245H556.495V175.211C556.495 173.636 557.74 172.392 559.315 172.392H560.891C562.467 172.392 563.712 173.636 563.712 175.211V185.245V185.245Z" fill="white"/>
<path fill-rule="evenodd" clip-rule="evenodd" d="M535.353 204.984C535.635 205.828 535.178 206.741 534.334 207.023C533.887 207.171 533.597 207.293 533.326 207.456C532.563 207.914 531.573 207.666 531.115 206.903C530.657 206.139 530.904 205.149 531.668 204.691C532.226 204.356 532.765 204.147 533.314 203.964C534.159 203.683 535.072 204.139 535.353 204.984Z" fill="white"/>
<path fill-rule="evenodd" clip-rule="evenodd" d="M529.656 207.7C530.177 208.421 530.015 209.429 529.294 209.951C524.852 213.162 521.281 217.46 518.805 221.001C517.572 222.764 516.623 224.321 515.984 225.434C515.665 225.99 515.423 226.434 515.263 226.736C515.183 226.887 515.124 227.003 515.085 227.079C515.066 227.117 515.051 227.145 515.042 227.163L515.033 227.182L515.031 227.185C515.031 227.185 515.031 227.185 515.031 227.185C514.638 227.984 513.671 228.312 512.873 227.918C512.074 227.525 511.746 226.559 512.139 225.76L513.475 226.418C512.139 225.76 512.14 225.76 512.14 225.759L512.14 225.758L512.142 225.756L512.146 225.747L512.16 225.718C512.173 225.693 512.19 225.658 512.213 225.613C512.259 225.523 512.326 225.393 512.414 225.228C512.59 224.896 512.849 224.419 513.188 223.829C513.866 222.648 514.866 221.008 516.163 219.153C518.746 215.459 522.558 210.843 527.405 207.338C528.126 206.816 529.134 206.978 529.656 207.7Z" fill="white"/>
<g clip-path="url(#clip1)">
<path d="M562.894 217.686C545.239 217.686 546.341 225.342 546.341 225.342L546.361 233.273H563.208V235.655H539.669C539.669 235.655 528.372 234.374 528.372 252.187C528.372 270.001 538.233 269.369 538.233 269.369H544.117V261.103C544.117 261.103 543.8 251.243 553.82 251.243C563.841 251.243 570.53 251.243 570.53 251.243C570.53 251.243 579.918 251.394 579.918 242.169C579.918 232.945 579.918 226.916 579.918 226.916C579.918 226.916 581.343 217.686 562.894 217.686ZM553.604 223.019C555.28 223.019 556.635 224.374 556.635 226.05C556.635 227.726 555.28 229.081 553.604 229.081C551.928 229.081 550.573 227.726 550.573 226.05C550.573 224.374 551.928 223.019 553.604 223.019Z" fill="url(#paint0_linear)"/>
<path d="M563.395 286.868C581.05 286.868 579.947 279.212 579.947 279.212L579.928 271.28H563.08V268.898H586.619C586.619 268.898 597.917 270.18 597.917 252.366C597.917 234.552 588.056 235.184 588.056 235.184H582.171V243.45C582.171 243.45 582.488 253.311 572.468 253.311C562.448 253.311 555.759 253.311 555.759 253.311C555.759 253.311 546.371 253.159 546.371 262.384C546.371 271.609 546.371 277.637 546.371 277.637C546.371 277.637 544.945 286.868 563.395 286.868ZM572.685 281.534C571.009 281.534 569.654 280.179 569.654 278.503C569.654 276.827 571.009 275.472 572.685 275.472C574.361 275.472 575.716 276.827 575.716 278.503C575.716 280.179 574.361 281.534 572.685 281.534Z" fill="url(#paint1_linear)"/>
</g>
<path fill-rule="evenodd" clip-rule="evenodd" d="M405.472 -10.8046V284.068H403.593V-10.8046H405.472Z" fill="white"/>
<path d="M437.636 389.476C456.481 370.636 456.481 340.09 437.636 321.251C418.791 302.411 388.237 302.411 369.392 321.251C350.547 340.09 350.547 370.636 369.392 389.476C388.237 408.316 418.791 408.316 437.636 389.476Z" fill="#00A96C"/>
<path fill-rule="evenodd" clip-rule="evenodd" d="M439.177 319.71C458.873 339.401 458.873 371.325 439.177 391.016C419.481 410.706 387.548 410.706 367.852 391.016C348.156 371.325 348.156 339.401 367.852 319.71C387.548 300.02 419.481 300.02 439.177 319.71ZM437.636 321.251C456.481 340.09 456.481 370.636 437.636 389.476C418.791 408.316 388.237 408.316 369.392 389.476C350.547 370.636 350.547 340.09 369.392 321.251C388.237 302.411 418.791 302.411 437.636 321.251Z" fill="black"/>
<path opacity="0.16" d="M404.279 392.542C428.366 392.542 447.893 374.864 447.893 353.058C447.893 331.252 428.366 313.575 404.279 313.575C380.192 313.575 360.666 331.252 360.666 353.058C360.666 374.864 380.192 392.542 404.279 392.542Z" fill="white"/>
<path d="M410.818 296.05H408.529V288.664C408.529 286.441 406.699 284.611 404.475 284.611C402.252 284.611 400.421 286.441 400.421 288.664V296.05H398.133V288.664C398.133 285.199 400.944 282.323 404.475 282.323C408.006 282.323 410.818 285.199 410.818 288.664V296.05V296.05Z" fill="#1E1C1C"/>
<path d="M408.072 291.867H400.552C398.394 291.867 396.563 293.632 396.563 295.854V305.202H411.995V295.854C411.995 293.697 410.229 291.867 408.072 291.867Z" fill="#F9B34C"/>
<path fill-rule="evenodd" clip-rule="evenodd" d="M394.385 307.381V295.854C394.385 292.405 397.215 289.688 400.552 289.688H408.072C411.478 289.688 414.173 292.54 414.173 295.854V307.381H394.385ZM411.995 295.854C411.995 293.697 410.229 291.867 408.072 291.867H400.552C398.394 291.867 396.563 293.632 396.563 295.854V305.202H411.995V295.854Z" fill="black"/>
<path opacity="0.37" d="M403.625 303.829H397.936V295.92C397.936 294.678 398.917 293.697 400.159 293.697H401.402C402.644 293.697 403.625 294.678 403.625 295.92V303.829V303.829Z" fill="white"/>
<path fill-rule="evenodd" clip-rule="evenodd" d="M381.268 319.39C381.49 320.056 381.13 320.775 380.465 320.997C380.113 321.114 379.884 321.211 379.67 321.339C379.068 321.7 378.288 321.505 377.927 320.903C377.566 320.301 377.761 319.52 378.363 319.159C378.803 318.895 379.228 318.73 379.661 318.586C380.327 318.364 381.046 318.724 381.268 319.39Z" fill="white"/>
<path fill-rule="evenodd" clip-rule="evenodd" d="M376.776 321.531C377.188 322.1 377.06 322.894 376.491 323.306C372.989 325.837 370.174 329.226 368.222 332.017C367.25 333.406 366.502 334.634 365.998 335.512C365.747 335.95 365.557 336.3 365.43 336.538C365.367 336.657 365.32 336.748 365.29 336.808C365.275 336.838 365.263 336.86 365.256 336.874L365.249 336.889L365.248 336.892C364.937 337.521 364.176 337.78 363.546 337.47C362.917 337.16 362.658 336.398 362.968 335.769L364.108 336.33C362.968 335.769 362.968 335.769 362.968 335.769L362.97 335.765L362.973 335.758L362.984 335.736C362.994 335.716 363.008 335.688 363.026 335.653C363.062 335.582 363.115 335.48 363.184 335.349C363.323 335.087 363.527 334.712 363.794 334.246C364.329 333.316 365.117 332.022 366.14 330.56C368.176 327.648 371.181 324.009 375.002 321.246C375.571 320.835 376.365 320.962 376.776 321.531Z" fill="white"/>
<g clip-path="url(#clip2)">
<ellipse opacity="0.3" cx="403.178" cy="379.449" rx="27.412" ry="4.49729" fill="black"/>
<path d="M416.785 351.024C413.63 348.205 412.305 343.938 412.951 339.767C413.042 339.18 413.076 338.574 413.046 337.955C412.828 333.301 408.975 329.538 404.297 329.403C399.189 329.256 395.001 333.335 395.001 338.387C395.001 339.145 395.096 339.88 395.273 340.583C396.303 344.666 395.286 348.984 392.387 352.048C389.477 355.123 387.636 359.253 387.636 363.803C387.636 374.28 391.732 379.33 397.591 380.921C398.94 380.318 400.895 379.939 403.071 379.939C405.14 379.939 407.01 380.282 408.347 380.834C415.578 379.391 419.008 375.885 421.401 367.79C423.312 361.325 420.349 354.208 416.785 351.024Z" fill="#161616"/>
<path d="M416.785 351.024C413.63 348.205 412.305 343.938 412.951 339.767C413.042 339.18 413.076 338.574 413.047 337.956C412.828 333.301 408.975 329.538 404.297 329.403C403.881 329.391 403.473 329.41 403.071 329.452V379.939C405.48 379.939 407.619 380.404 408.962 381.122C415.803 380.06 419.075 375.659 421.401 367.79C423.312 361.325 420.349 354.209 416.785 351.024Z" fill="#121010"/>
<path d="M391.462 365.927C391.462 359.096 396.959 343.277 403.74 343.277C410.521 343.277 416.017 359.176 416.017 365.927C416.017 372.678 410.521 378.15 403.74 378.15C396.959 378.15 391.462 372.678 391.462 365.927Z" fill="white"/>
<path d="M403.74 343.277C403.516 343.277 403.292 343.295 403.071 343.329V378.132C403.292 378.144 403.516 378.15 403.74 378.15C410.521 378.15 416.018 372.678 416.018 365.927C416.018 359.176 410.521 343.277 403.74 343.277Z" fill="#E6E6E6"/>
<path d="M399.212 342.558C400.329 342.558 401.234 341.335 401.234 339.825C401.234 338.316 400.329 337.092 399.212 337.092C398.095 337.092 397.19 338.316 397.19 339.825C397.19 341.335 398.095 342.558 399.212 342.558Z" fill="#E6E6E6"/>
<path d="M399.212 342.218C399.766 342.218 400.215 341.425 400.215 340.446C400.215 339.468 399.766 338.674 399.212 338.674C398.658 338.674 398.209 339.468 398.209 340.446C398.209 341.425 398.658 342.218 399.212 342.218Z" fill="#000100"/>
<path d="M406.412 342.558C407.529 342.558 408.434 341.335 408.434 339.825C408.434 338.316 407.529 337.092 406.412 337.092C405.295 337.092 404.39 338.316 404.39 339.825C404.39 341.335 405.295 342.558 406.412 342.558Z" fill="#E6E6E6"/>
<path d="M406.412 342.218C406.966 342.218 407.415 341.425 407.415 340.446C407.415 339.468 406.966 338.674 406.412 338.674C405.858 338.674 405.409 339.468 405.409 340.446C405.409 341.425 405.858 342.218 406.412 342.218Z" fill="#000100"/>
<path d="M409.121 344.499C409.781 345.901 404.751 348.562 403 348.562C400.815 348.562 396.253 345.347 396.879 344.499C398.048 342.917 400.599 340.365 402.693 340.365C404.202 340.365 408.672 343.546 409.121 344.499Z" fill="#FE9A0F"/>
<path d="M409.121 344.499C408.705 343.616 404.836 340.82 403.071 340.415V348.558C404.881 348.492 409.773 345.883 409.121 344.499Z" fill="#E88A18"/>
<path d="M416.776 366.379C417.668 368.096 418.996 369.717 420.708 370.092C421.97 370.369 422.925 371.439 423.066 372.718C423.086 372.896 423.112 373.074 423.146 373.253C423.364 374.41 423.858 375.445 424.546 376.306C425.58 377.598 424.835 379.525 423.205 379.833L410.332 382.262C407.528 382.791 405.419 379.764 406.899 377.334L414.006 366.24C414.671 365.201 416.207 365.285 416.776 366.379Z" fill="#E88A18"/>
<path fill-rule="evenodd" clip-rule="evenodd" d="M406.899 377.334L414.006 366.24C414.671 365.201 416.207 365.285 416.776 366.379C417.668 368.096 418.996 369.717 420.708 370.092C421.97 370.369 422.925 371.439 423.066 372.718C423.086 372.896 423.112 373.074 423.146 373.253C423.364 374.41 423.858 375.445 424.546 376.306C425.58 377.598 424.835 379.525 423.205 379.833L410.332 382.262C407.528 382.791 405.419 379.764 406.899 377.334ZM423.626 377.042C423.585 376.991 423.544 376.939 423.504 376.886C422.762 375.911 422.23 374.753 421.988 373.471C421.949 373.263 421.918 373.055 421.895 372.847C421.809 372.068 421.222 371.411 420.456 371.243C420.157 371.178 419.871 371.086 419.598 370.97L415.73 366.923C415.57 366.614 415.163 366.618 414.998 366.875L407.899 377.958C406.97 379.503 408.304 381.445 410.114 381.103L422.986 378.675C423.775 378.526 424.084 377.615 423.626 377.042Z" fill="black"/>
<path d="M418.261 370.166C418.669 370.49 419.114 370.766 419.598 370.97L415.73 366.923L418.261 370.166Z" fill="black"/>
<path d="M402.979 347.767C401.15 347.767 399.284 346.877 397.424 345.114L398.05 344.459C399.904 346.216 401.726 347.016 403.461 346.838C405.856 346.592 407.299 344.55 407.313 344.53L408.06 345.044C407.992 345.142 406.361 347.449 403.554 347.737C403.363 347.757 403.171 347.767 402.979 347.767Z" fill="#AE4E32"/>
<path d="M403.461 346.838C403.331 346.851 403.201 346.857 403.071 346.86V347.764C403.232 347.762 403.393 347.754 403.554 347.737C406.361 347.449 407.992 345.141 408.06 345.044L407.312 344.53C407.298 344.55 405.856 346.592 403.461 346.838Z" fill="#9E402B"/>
<path d="M390.662 363.856C390.662 363.856 395.069 369.204 398.209 370.41C401.349 371.615 396.715 375.114 392.478 372.46C388.241 369.807 390.662 363.856 390.662 363.856Z" fill="#111111"/>
<path d="M388.294 366.379C387.402 368.096 386.074 369.717 384.362 370.092C383.099 370.369 382.144 371.439 382.003 372.718C381.984 372.896 381.957 373.074 381.924 373.253C381.706 374.41 381.212 375.445 380.524 376.306C379.49 377.598 380.235 379.525 381.865 379.833L394.738 382.262C397.542 382.791 399.651 379.764 398.171 377.334L391.064 366.24C390.399 365.201 388.863 365.285 388.294 366.379Z" fill="#FE9B0E"/>
<path fill-rule="evenodd" clip-rule="evenodd" d="M394.738 382.262C397.542 382.791 399.651 379.764 398.171 377.334L391.064 366.24C390.399 365.201 388.863 365.285 388.294 366.379C387.402 368.096 386.074 369.717 384.362 370.092C383.099 370.369 382.144 371.439 382.003 372.718C381.984 372.896 381.957 373.074 381.924 373.253C381.706 374.41 381.212 375.445 380.524 376.306C379.49 377.598 380.235 379.525 381.865 379.833L394.738 382.262ZM388.334 368.552C388.727 368.018 389.061 367.459 389.34 366.923C389.5 366.614 389.907 366.618 390.072 366.875L397.171 377.958C398.1 379.503 396.766 381.445 394.956 381.103L382.084 378.675C381.295 378.526 380.986 377.615 381.444 377.042L383.082 373.471C383.121 373.263 383.152 373.055 383.175 372.847C383.261 372.068 383.848 371.411 384.614 371.243C384.72 371.22 384.824 371.194 384.926 371.164C386.354 370.75 387.481 369.711 388.334 368.552Z" fill="black"/>
</g>
<path fill-rule="evenodd" clip-rule="evenodd" d="M119.108 -107.76V106.953H117.229V-107.76H119.108Z" fill="white"/>
<path d="M151.272 212.36C170.117 193.52 170.117 162.975 151.272 144.135C132.427 125.295 101.874 125.295 83.0286 144.135C64.1836 162.975 64.1836 193.52 83.0286 212.36C101.874 231.2 132.427 231.2 151.272 212.36Z" fill="#FCFFFE"/>
<path fill-rule="evenodd" clip-rule="evenodd" d="M152.813 142.595C172.509 162.285 172.509 194.21 152.813 213.9C133.117 233.59 101.184 233.59 81.4881 213.9C61.7923 194.21 61.7923 162.285 81.4881 142.595C101.184 122.904 133.117 122.904 152.813 142.595ZM151.272 144.135C170.117 162.975 170.117 193.52 151.272 212.36C132.427 231.2 101.874 231.2 83.0287 212.36C64.1837 193.52 64.1837 162.975 83.0287 144.135C101.874 125.295 132.427 125.295 151.272 144.135Z" fill="black"/>
<path opacity="0.16" d="M117.916 215.426C142.003 215.426 161.529 197.748 161.529 175.942C161.529 154.136 142.003 136.459 117.916 136.459C93.8284 136.459 74.302 154.136 74.302 175.942C74.302 197.748 93.8284 215.426 117.916 215.426Z" fill="white"/>
<path d="M124.454 118.934H122.166V111.548C122.166 109.325 120.335 107.495 118.112 107.495C115.888 107.495 114.058 109.325 114.058 111.548V118.934H111.769V111.548C111.769 108.083 114.581 105.207 118.112 105.207C121.643 105.207 124.454 108.083 124.454 111.548V118.934V118.934Z" fill="#1E1C1C"/>
<path d="M121.708 114.751H114.188C112.031 114.751 110.2 116.516 110.2 118.738V128.086H125.631V118.738C125.631 116.581 123.866 114.751 121.708 114.751Z" fill="#F9B34C"/>
<path fill-rule="evenodd" clip-rule="evenodd" d="M108.021 130.265V118.738C108.021 115.289 110.851 112.572 114.188 112.572H121.708C125.115 112.572 127.81 115.424 127.81 118.738V130.265H108.021ZM125.631 118.738C125.631 116.581 123.866 114.751 121.708 114.751H114.188C112.031 114.751 110.2 116.516 110.2 118.738V128.086H125.631V118.738Z" fill="black"/>
<path opacity="0.37" d="M117.261 126.713H111.573V118.804C111.573 117.562 112.553 116.581 113.796 116.581H115.038C116.28 116.581 117.261 117.562 117.261 118.804V126.713V126.713Z" fill="white"/>
<path fill-rule="evenodd" clip-rule="evenodd" d="M94.9046 142.274C95.1264 142.94 94.7666 143.659 94.1007 143.881C93.749 143.998 93.5202 144.095 93.3065 144.223C92.7046 144.584 91.9241 144.389 91.563 143.787C91.202 143.185 91.3973 142.404 91.9991 142.043C92.4393 141.779 92.8644 141.614 93.2972 141.47C93.9631 141.248 94.6827 141.608 94.9046 142.274Z" fill="white"/>
<path fill-rule="evenodd" clip-rule="evenodd" d="M90.4127 144.415C90.8239 144.984 90.6962 145.778 90.1275 146.19C86.6255 148.722 83.8106 152.11 81.8585 154.901C80.8867 156.291 80.1385 157.518 79.6347 158.396C79.383 158.834 79.1928 159.184 79.0667 159.422C79.0037 159.541 78.9567 159.632 78.9261 159.692C78.9108 159.722 78.8996 159.744 78.8926 159.758L78.8851 159.773L78.8839 159.776C78.5736 160.405 77.8118 160.664 77.1823 160.354C76.5528 160.044 76.2939 159.282 76.604 158.653L77.7439 159.214C76.604 158.653 76.6039 158.653 76.604 158.653L76.6058 158.649L76.6091 158.642L76.6205 158.62C76.6302 158.6 76.6442 158.573 76.6623 158.537C76.6985 158.466 76.7514 158.364 76.8207 158.233C76.9592 157.971 77.1634 157.596 77.4307 157.13C77.9649 156.2 78.7533 154.906 79.7758 153.444C81.8124 150.532 84.8169 146.893 88.6384 144.13C89.2071 143.719 90.0015 143.846 90.4127 144.415Z" fill="white"/>
<g clip-path="url(#clip3)">
<path d="M105.847 169.064H102.82L111.074 192.396L115.695 179.192L112.112 169.064H108.918V166.841H123.063V169.064H119.751L128.005 192.396L130.972 183.918C134.864 173.055 127.782 169.671 127.782 167.247C127.782 164.822 129.747 162.857 132.171 162.857C132.302 162.857 132.43 162.864 132.554 162.876C128.447 158.998 122.908 156.621 116.814 156.621C108.85 156.621 101.835 160.68 97.7234 166.841H105.847V169.064H105.847Z" fill="#0099E5"/>
<path d="M93.8777 179.557C93.8777 188.338 98.8132 195.965 106.061 199.819L95.7101 170.56C94.531 173.323 93.8777 176.363 93.8777 179.557Z" fill="#0099E5"/>
<path d="M136.775 168.255C137.103 170.186 137.004 172.357 136.5 174.537H136.592L136.245 175.528C136.039 176.244 135.78 176.976 135.487 177.695L127.594 199.805C134.827 195.946 139.75 188.327 139.75 179.557C139.75 175.447 138.668 171.591 136.775 168.255Z" fill="#0099E5"/>
<path d="M109.74 201.379C111.968 202.101 114.345 202.493 116.814 202.493C119.169 202.493 121.44 202.137 123.579 201.478L116.87 182.513L109.74 201.379Z" fill="#0099E5"/>
<path d="M136.197 160.174C131.02 154.996 124.136 152.145 116.814 152.145C109.492 152.145 102.608 154.996 97.4306 160.174C92.2532 165.351 89.4019 172.235 89.4019 179.557C89.4019 186.879 92.2532 193.763 97.4306 198.94C102.608 204.117 109.492 206.969 116.814 206.969C124.136 206.969 131.02 204.117 136.197 198.94C141.375 193.763 144.226 186.879 144.226 179.557C144.226 172.235 141.374 165.351 136.197 160.174ZM116.814 205.035C102.765 205.035 91.3356 193.606 91.3356 179.557C91.3356 165.508 102.765 154.079 116.814 154.079C130.862 154.079 142.292 165.508 142.292 179.557C142.292 193.606 130.863 205.035 116.814 205.035Z" fill="#0099E5"/>
</g>
<path fill-rule="evenodd" clip-rule="evenodd" d="M312.155 -5.06384V110.701H310.275V-5.06384H312.155Z" fill="white"/>
<path d="M353.28 244.561C377.185 220.663 377.185 181.916 353.28 158.018C329.375 134.119 290.617 134.119 266.713 158.018C242.808 181.916 242.808 220.663 266.713 244.561C290.617 268.46 329.375 268.46 353.28 244.561Z" fill="#D291FF"/>
<path fill-rule="evenodd" clip-rule="evenodd" d="M355.234 156.064C380.218 181.041 380.218 221.538 355.234 246.515C330.25 271.492 289.742 271.492 264.758 246.515C239.774 221.538 239.774 181.041 264.758 156.064C289.742 131.087 330.25 131.087 355.234 156.064ZM353.28 158.018C377.185 181.916 377.185 220.663 353.28 244.561C329.375 268.46 290.617 268.46 266.713 244.561C242.808 220.663 242.808 181.916 266.713 158.018C290.617 134.119 329.375 134.119 353.28 158.018Z" fill="black"/>
<path opacity="0.16" d="M310.966 248.45C341.521 248.45 366.29 226.027 366.29 198.366C366.29 170.705 341.521 148.281 310.966 148.281C280.412 148.281 255.643 170.705 255.643 198.366C255.643 226.027 280.412 248.45 310.966 248.45Z" fill="white"/>
<path d="M319.261 126.051H316.358V116.681C316.358 113.862 314.035 111.54 311.215 111.54C308.395 111.54 306.073 113.862 306.073 116.681V126.051H303.17V116.681C303.17 112.286 306.736 108.638 311.215 108.638C315.694 108.638 319.261 112.286 319.261 116.681V126.051V126.051Z" fill="#1E1C1C"/>
<path d="M315.778 120.744H306.239C303.502 120.744 301.179 122.983 301.179 125.803V137.66H320.754V125.803C320.754 123.066 318.515 120.744 315.778 120.744Z" fill="#F9B34C"/>
<path fill-rule="evenodd" clip-rule="evenodd" d="M298.416 140.424V125.803C298.416 121.427 302.006 117.981 306.239 117.981H315.778C320.099 117.981 323.518 121.599 323.518 125.803V140.424H298.416ZM320.754 125.803C320.754 123.066 318.515 120.744 315.778 120.744H306.239C303.502 120.744 301.179 122.983 301.179 125.803V137.66H320.754V125.803Z" fill="black"/>
<path opacity="0.37" d="M310.137 135.919H302.92V125.885C302.92 124.31 304.165 123.066 305.741 123.066H307.316C308.892 123.066 310.137 124.31 310.137 125.885V135.919V135.919Z" fill="white"/>
<path fill-rule="evenodd" clip-rule="evenodd" d="M281.778 155.658C282.06 156.502 281.603 157.415 280.759 157.696C280.313 157.845 280.022 157.967 279.751 158.13C278.988 158.588 277.998 158.34 277.54 157.577C277.082 156.813 277.329 155.823 278.093 155.365C278.651 155.03 279.19 154.821 279.74 154.638C280.584 154.356 281.497 154.813 281.778 155.658Z" fill="white"/>
<path fill-rule="evenodd" clip-rule="evenodd" d="M276.081 158.374C276.602 159.095 276.44 160.103 275.719 160.625C271.277 163.836 267.706 168.134 265.23 171.675C263.997 173.438 263.048 174.995 262.409 176.108C262.09 176.664 261.848 177.108 261.688 177.41C261.608 177.561 261.549 177.677 261.51 177.753C261.491 177.791 261.476 177.819 261.468 177.837L261.458 177.856L261.456 177.859C261.456 177.859 261.456 177.859 261.456 177.859C261.063 178.658 260.097 178.986 259.298 178.592C258.5 178.199 258.171 177.233 258.565 176.434L259.9 177.092C258.565 176.434 258.565 176.434 258.565 176.433L258.565 176.432L258.567 176.43L258.571 176.421L258.585 176.392C258.598 176.367 258.615 176.332 258.638 176.287C258.684 176.197 258.751 176.067 258.839 175.901C259.015 175.57 259.274 175.093 259.613 174.503C260.291 173.322 261.291 171.682 262.588 169.827C265.171 166.133 268.983 161.517 273.83 158.012C274.552 157.49 275.559 157.652 276.081 158.374Z" fill="white"/>
<path d="M277.695 171.945H341.444V233.956H277.695V171.945Z" fill="#1F0040"/>
<path d="M274.797 169.048V236.853H344.342V169.048H274.797ZM277.695 171.945H341.444V233.956H277.695V171.945ZM294.444 207.442L292.154 216.106C292.097 216.338 292.01 216.425 291.72 216.425H287.46C287.17 216.425 287.113 216.338 287.17 215.99L295.4 187.216C295.545 186.695 295.632 186.289 295.69 184.84C295.69 184.637 295.777 184.55 295.921 184.55H302.007C302.209 184.55 302.296 184.608 302.354 184.84L311.569 216.048C311.627 216.28 311.569 216.425 311.337 216.425H306.556C306.324 216.425 306.179 216.338 306.121 216.135L303.716 207.442H294.444ZM302.586 202.748C301.775 199.531 299.804 192.519 299.08 189.129H299.022C298.413 192.519 296.82 198.256 295.632 202.748C295.661 202.748 302.586 202.748 302.586 202.748ZM318.118 205.703C318.176 209.615 320.03 212.252 324.435 212.252C326.144 212.252 327.622 212.02 329.158 211.354C329.361 211.267 329.506 211.296 329.506 211.557V215.179C329.506 215.469 329.419 215.613 329.216 215.758C327.68 216.512 325.768 216.859 323.391 216.859C315.742 216.859 312.873 211.209 312.873 204.892C312.873 198.054 316.408 192.461 322.638 192.461C328.955 192.461 331.157 197.764 331.157 202.081C331.157 203.472 331.07 204.602 330.925 205.153C330.867 205.385 330.781 205.472 330.549 205.53C329.969 205.616 328.26 205.732 325.71 205.732L318.118 205.703ZM324 201.705C325.478 201.705 325.999 201.705 326.144 201.647C326.144 201.444 326.202 201.299 326.202 201.154C326.202 199.589 325.449 196.692 322.435 196.692C319.653 196.692 318.465 199.126 318.176 201.705H324Z" fill="#D291FF"/>
<path fill-rule="evenodd" clip-rule="evenodd" d="M693.677 -20.1482V333.86H691.5V-20.1482H693.677Z" fill="white"/>
<path d="M724.861 436.452C743.219 418.099 743.219 388.342 724.861 369.989C706.503 351.636 676.738 351.636 658.38 369.989C640.022 388.342 640.022 418.099 658.38 436.452C676.738 454.805 706.503 454.805 724.861 436.452Z" fill="#094058"/>
<path fill-rule="evenodd" clip-rule="evenodd" d="M726.362 368.489C745.549 387.671 745.549 418.771 726.362 437.952C707.175 457.134 676.066 457.134 656.879 437.952C637.692 418.771 637.692 387.671 656.879 368.489C676.066 349.307 707.175 349.307 726.362 368.489ZM724.861 369.989C743.219 388.342 743.219 418.099 724.861 436.452C706.503 454.805 676.738 454.805 658.38 436.452C640.022 418.099 640.022 388.342 658.38 369.989C676.738 351.636 706.503 351.636 724.861 369.989Z" fill="black"/>
<path opacity="0.16" d="M692.366 439.439C715.831 439.439 734.853 422.218 734.853 400.975C734.853 379.732 715.831 362.512 692.366 362.512C668.901 362.512 649.879 379.732 649.879 400.975C649.879 422.218 668.901 439.439 692.366 439.439Z" fill="white"/>
<path d="M698.736 345.44H696.506V338.244C696.506 336.079 694.723 334.296 692.557 334.296C690.391 334.296 688.608 336.079 688.608 338.244V345.44H686.378V338.244C686.378 334.869 689.117 332.067 692.557 332.067C695.997 332.067 698.736 334.869 698.736 338.244V345.44V345.44Z" fill="#1E1C1C"/>
<path d="M696.061 341.364H688.735C686.633 341.364 684.85 343.084 684.85 345.249V354.355H699.883V345.249C699.883 343.147 698.163 341.364 696.061 341.364Z" fill="#F9B34C"/>
<path fill-rule="evenodd" clip-rule="evenodd" d="M682.728 356.477V345.249C682.728 341.889 685.485 339.242 688.736 339.242H696.061C699.38 339.242 702.005 342.021 702.005 345.249V356.477H682.728ZM699.883 345.249C699.883 343.147 698.163 341.364 696.061 341.364H688.736C686.634 341.364 684.85 343.084 684.85 345.249V354.355H699.883V345.249Z" fill="black"/>
<path opacity="0.37" d="M691.729 353.018H686.187V345.313C686.187 344.103 687.143 343.147 688.353 343.147H689.563C690.774 343.147 691.729 344.103 691.729 345.313V353.018V353.018Z" fill="white"/>
<path fill-rule="evenodd" clip-rule="evenodd" d="M669.95 368.177C670.166 368.825 669.815 369.526 669.167 369.742C668.824 369.857 668.601 369.95 668.393 370.075C667.807 370.427 667.046 370.237 666.695 369.65C666.343 369.064 666.533 368.304 667.119 367.952C667.548 367.695 667.962 367.534 668.384 367.393C669.033 367.177 669.734 367.528 669.95 368.177Z" fill="white"/>
<path fill-rule="evenodd" clip-rule="evenodd" d="M665.574 370.263C665.975 370.817 665.851 371.59 665.297 371.991C661.885 374.458 659.143 377.758 657.241 380.477C656.294 381.831 655.566 383.027 655.075 383.882C654.83 384.309 654.644 384.65 654.521 384.882C654.46 384.998 654.414 385.086 654.384 385.145C654.37 385.174 654.359 385.196 654.352 385.209L654.345 385.224L654.343 385.226L654.343 385.227L654.343 385.227C654.041 385.84 653.299 386.092 652.686 385.79C652.072 385.488 651.82 384.746 652.122 384.132L653.164 384.645C652.122 384.132 652.122 384.132 652.123 384.132L652.123 384.131L652.124 384.129L652.127 384.122L652.138 384.1C652.148 384.081 652.161 384.054 652.179 384.02C652.214 383.95 652.266 383.851 652.333 383.723C652.468 383.468 652.667 383.103 652.928 382.649C653.448 381.743 654.216 380.483 655.212 379.058C657.196 376.221 660.123 372.676 663.846 369.985C664.4 369.584 665.174 369.709 665.574 370.263Z" fill="white"/>
<path d="M703.934 396.119H678.819C678.261 396.119 677.808 396.572 677.808 397.131V418.191C677.808 418.75 678.261 419.202 678.819 419.202H683.297V426.3C683.297 427.946 684.632 429.282 686.278 429.282C687.925 429.282 689.26 427.947 689.26 426.3V419.202H693.431V426.3C693.431 427.946 694.766 429.282 696.412 429.282C698.059 429.282 699.394 427.947 699.394 426.3V419.202H703.934C704.492 419.202 704.945 418.75 704.945 418.191V397.131C704.945 396.572 704.492 396.119 703.934 396.119Z" fill="#8FD537"/>
<path d="M673.556 396.114C671.91 396.114 670.574 397.449 670.574 399.096V411.207C670.574 412.854 671.909 414.189 673.556 414.189C675.203 414.189 676.538 412.854 676.538 411.207V399.096C676.538 397.449 675.203 396.114 673.556 396.114Z" fill="#8FD537"/>
<path d="M709.197 396.114C707.55 396.114 706.215 397.449 706.215 399.096V411.207C706.215 412.854 707.55 414.189 709.197 414.189C710.844 414.189 712.179 412.854 712.179 411.207V399.096C712.179 397.449 710.844 396.114 709.197 396.114Z" fill="#8FD537"/>
<path d="M679.023 394.642H703.671C704.314 394.642 704.794 394.05 704.662 393.42C703.846 389.535 701.372 386.26 698.015 384.368L700.122 380.566C700.265 380.309 700.172 379.984 699.915 379.842C699.657 379.699 699.333 379.792 699.19 380.049L697.067 383.88C695.328 383.073 693.39 382.622 691.347 382.622C689.304 382.622 687.366 383.073 685.627 383.88L683.504 380.049C683.361 379.792 683.037 379.699 682.779 379.842C682.522 379.984 682.429 380.309 682.572 380.566L684.679 384.368C681.322 386.26 678.848 389.534 678.032 393.42C677.9 394.05 678.38 394.642 679.023 394.642ZM698.702 388.976C698.702 389.609 698.189 390.122 697.556 390.122C696.923 390.122 696.409 389.609 696.409 388.976C696.409 388.343 696.922 387.83 697.556 387.83C698.189 387.83 698.702 388.343 698.702 388.976ZM685.138 387.83C685.771 387.83 686.284 388.343 686.284 388.976C686.284 389.609 685.771 390.122 685.138 390.122C684.505 390.122 683.992 389.609 683.992 388.976C683.992 388.343 684.505 387.83 685.138 387.83Z" fill="#8FD537"/>
<path fill-rule="evenodd" clip-rule="evenodd" d="M208.2 -5.06384V422.668H206.321V-5.06384H208.2Z" fill="white"/>
<path d="M234.98 511.602C250.809 495.777 250.809 470.121 234.98 454.297C219.152 438.473 193.489 438.473 177.66 454.297C161.832 470.121 161.832 495.777 177.66 511.602C193.489 527.426 219.152 527.426 234.98 511.602Z" fill="#EFD60F"/>
<path fill-rule="evenodd" clip-rule="evenodd" d="M236.309 452.969C252.871 469.527 252.871 496.372 236.309 512.93C219.747 529.488 192.893 529.488 176.331 512.93C159.769 496.372 159.769 469.527 176.331 452.969C192.893 436.411 219.747 436.411 236.309 452.969ZM234.98 454.297C250.808 470.121 250.808 495.777 234.98 511.602C219.152 527.426 193.489 527.426 177.66 511.602C161.832 495.777 161.832 470.121 177.66 454.297C193.489 438.473 219.152 438.473 234.98 454.297Z" fill="black"/>
<path opacity="0.16" d="M206.963 514.177C227.194 514.177 243.595 499.329 243.595 481.014C243.595 462.698 227.194 447.85 206.963 447.85C186.731 447.85 170.33 462.698 170.33 481.014C170.33 499.329 186.731 514.177 206.963 514.177Z" fill="white"/>
<path d="M212.455 433.131H210.532V426.926C210.532 425.06 208.995 423.522 207.127 423.522C205.26 423.522 203.722 425.06 203.722 426.926V433.131H201.8V426.926C201.8 424.016 204.162 421.601 207.127 421.601C210.093 421.601 212.455 424.016 212.455 426.926V433.131V433.131Z" fill="#1E1C1C"/>
<path d="M210.148 429.617H203.832C202.02 429.617 200.482 431.099 200.482 432.966V440.818H213.444V432.966C213.444 431.154 211.961 429.617 210.148 429.617Z" fill="#F9B34C"/>
<path fill-rule="evenodd" clip-rule="evenodd" d="M198.652 442.647V432.966C198.652 430.069 201.029 427.787 203.832 427.787H210.148C213.01 427.787 215.273 430.183 215.273 432.966V442.647H198.652ZM213.443 432.966C213.443 431.154 211.961 429.617 210.148 429.617H203.832C202.02 429.617 200.482 431.099 200.482 432.966V440.818H213.443V432.966Z" fill="black"/>
<path opacity="0.37" d="M206.414 439.665H201.635V433.021C201.635 431.978 202.459 431.154 203.503 431.154H204.546C205.59 431.154 206.414 431.978 206.414 433.021V439.665V439.665Z" fill="white"/>
<path fill-rule="evenodd" clip-rule="evenodd" d="M187.635 452.734C187.822 453.294 187.519 453.898 186.96 454.084C186.665 454.183 186.473 454.264 186.293 454.372C185.788 454.675 185.132 454.511 184.829 454.005C184.525 453.5 184.689 452.844 185.195 452.541C185.565 452.319 185.922 452.18 186.285 452.059C186.845 451.873 187.449 452.175 187.635 452.734Z" fill="white"/>
<path fill-rule="evenodd" clip-rule="evenodd" d="M183.863 454.533C184.208 455.011 184.101 455.678 183.623 456.023C180.682 458.15 178.317 460.996 176.678 463.34C175.862 464.507 175.233 465.539 174.81 466.276C174.599 466.644 174.439 466.938 174.333 467.138C174.28 467.238 174.241 467.314 174.215 467.365L174.187 467.42L174.18 467.433L174.179 467.435C173.919 467.963 173.279 468.181 172.75 467.921C172.221 467.66 172.004 467.02 172.264 466.491L173.158 466.932C172.264 466.491 172.264 466.492 172.264 466.491L172.266 466.488L172.269 466.483L172.278 466.464C172.286 466.447 172.298 466.424 172.313 466.394C172.344 466.335 172.388 466.249 172.446 466.139C172.563 465.919 172.734 465.604 172.959 465.213C173.407 464.431 174.07 463.345 174.928 462.117C176.639 459.671 179.163 456.614 182.372 454.293C182.85 453.948 183.517 454.055 183.863 454.533Z" fill="white"/>
<g clip-path="url(#clip4)">
<path d="M229.062 461.025H183.013V507.073H229.062V461.025Z" fill="#F7DF1E"/>
<path d="M213.946 497.001C214.873 498.515 216.08 499.628 218.214 499.628C220.007 499.628 221.153 498.732 221.153 497.494C221.153 496.01 219.976 495.485 218.003 494.621L216.921 494.157C213.798 492.827 211.724 491.16 211.724 487.637C211.724 484.392 214.197 481.922 218.061 481.922C220.812 481.922 222.79 482.879 224.215 485.386L220.846 487.55C220.104 486.219 219.304 485.695 218.061 485.695C216.794 485.695 215.99 486.499 215.99 487.55C215.99 488.848 216.794 489.373 218.651 490.177L219.733 490.641C223.409 492.217 225.485 493.825 225.485 497.438C225.485 501.334 222.425 503.469 218.315 503.469C214.296 503.469 211.7 501.554 210.429 499.044L213.946 497.001ZM198.66 497.376C199.34 498.582 199.958 499.601 201.445 499.601C202.867 499.601 203.763 499.045 203.763 496.882V482.169H208.09V496.941C208.09 501.421 205.463 503.46 201.629 503.46C198.164 503.46 196.158 501.668 195.138 499.508L198.66 497.376Z" fill="black"/>
</g>
<path fill-rule="evenodd" clip-rule="evenodd" d="M482.893 -27.8235V479.303H481.014V-27.8235H482.893Z" fill="white"/>
<path d="M509.657 568.013C525.476 552.198 525.476 526.558 509.657 510.743C493.838 494.929 468.19 494.929 452.371 510.743C436.553 526.558 436.553 552.198 452.371 568.013C468.19 583.828 493.838 583.828 509.657 568.013Z" fill="#31A8FF"/>
<path fill-rule="evenodd" clip-rule="evenodd" d="M510.986 509.415C527.539 525.963 527.539 552.793 510.986 569.342C494.433 585.89 467.595 585.89 451.042 569.342C434.489 552.793 434.489 525.963 451.042 509.415C467.595 492.866 494.433 492.866 510.986 509.415ZM509.657 510.743C525.475 526.558 525.475 552.198 509.657 568.013C493.838 583.828 468.19 583.828 452.371 568.013C436.552 552.198 436.552 526.558 452.371 510.743C468.19 494.929 493.838 494.929 509.657 510.743Z" fill="black"/>
<path opacity="0.16" d="M481.656 570.587C501.875 570.587 518.266 555.748 518.266 537.444C518.266 519.139 501.875 504.3 481.656 504.3C461.437 504.3 445.046 519.139 445.046 537.444C445.046 555.748 461.437 570.587 481.656 570.587Z" fill="white"/>
<path d="M487.145 489.59H485.224V483.389C485.224 481.523 483.687 479.987 481.821 479.987C479.955 479.987 478.418 481.523 478.418 483.389V489.59H476.497V483.389C476.497 480.481 478.857 478.066 481.821 478.066C484.785 478.066 487.145 480.481 487.145 483.389V489.59V489.59Z" fill="#1E1C1C"/>
<path d="M484.84 486.078H478.528C476.717 486.078 475.18 487.56 475.18 489.425V497.272H488.133V489.425C488.133 487.614 486.651 486.078 484.84 486.078Z" fill="#F9B34C"/>
<path fill-rule="evenodd" clip-rule="evenodd" d="M473.351 499.101V489.425C473.351 486.53 475.727 484.249 478.528 484.249H484.84C487.7 484.249 489.962 486.643 489.962 489.425V499.101H473.351ZM488.133 489.425C488.133 487.614 486.651 486.078 484.84 486.078H478.528C476.717 486.078 475.18 487.56 475.18 489.425V497.272H488.133V489.425Z" fill="black"/>
<path opacity="0.37" d="M481.107 496.12H476.332V489.48C476.332 488.437 477.155 487.614 478.198 487.614H479.241C480.283 487.614 481.107 488.437 481.107 489.48V496.12V496.12Z" fill="white"/>
<path fill-rule="evenodd" clip-rule="evenodd" d="M462.34 509.181C462.527 509.74 462.225 510.344 461.666 510.531C461.37 510.629 461.178 510.71 460.999 510.818C460.494 511.121 459.838 510.957 459.535 510.452C459.232 509.946 459.396 509.291 459.901 508.988C460.271 508.766 460.628 508.628 460.991 508.507C461.55 508.32 462.154 508.623 462.34 509.181Z" fill="white"/>
<path fill-rule="evenodd" clip-rule="evenodd" d="M458.57 510.979C458.915 511.456 458.808 512.123 458.33 512.468C455.391 514.594 453.028 517.438 451.389 519.781C450.573 520.947 449.945 521.978 449.522 522.714C449.311 523.082 449.152 523.376 449.046 523.576C448.993 523.676 448.953 523.752 448.928 523.803L448.9 523.858L448.893 523.871L448.892 523.873C448.632 524.401 447.992 524.619 447.464 524.358C446.935 524.098 446.718 523.459 446.978 522.93L447.871 523.37C446.978 522.93 446.978 522.93 446.978 522.93L446.98 522.927L446.983 522.922L446.992 522.902C447 522.886 447.012 522.863 447.027 522.833C447.058 522.774 447.102 522.688 447.16 522.578C447.277 522.358 447.448 522.043 447.672 521.652C448.121 520.871 448.783 519.786 449.641 518.558C451.351 516.114 453.873 513.059 457.08 510.739C457.558 510.394 458.225 510.502 458.57 510.979Z" fill="white"/>
<g clip-path="url(#clip5)">
<path d="M465.871 518.042H495.593C500.099 518.042 503.742 521.686 503.742 526.192V554.763C503.742 559.269 500.099 562.913 495.593 562.913H465.871C461.365 562.913 457.721 559.269 457.721 554.763V526.192C457.721 521.686 461.365 518.042 465.871 518.042Z" fill="#001E36"/>
<path d="M471.757 547.17V533.21C471.757 533.114 471.796 533.057 471.892 533.057C472.122 533.057 472.333 533.057 472.659 533.037C472.985 533.037 473.33 533.018 473.694 533.018C474.058 533.018 474.461 532.999 474.883 532.999C475.305 532.999 475.707 532.98 476.11 532.98C477.069 532.961 478.008 533.095 478.91 533.402C479.6 533.632 480.214 534.015 480.731 534.514C481.172 534.955 481.518 535.473 481.728 536.048C481.939 536.604 482.035 537.199 482.035 537.812C482.035 538.982 481.767 539.941 481.23 540.708C480.693 541.475 479.926 542.05 479.044 542.357C478.066 542.683 477.031 542.855 475.976 542.817C475.65 542.817 475.42 542.817 475.305 542.798C475.171 542.798 474.979 542.779 474.71 542.779V547.131C474.729 547.227 474.653 547.323 474.557 547.323C474.538 547.323 474.519 547.323 474.499 547.323H471.911C471.815 547.361 471.757 547.304 471.757 547.17ZM474.71 535.684V540.247C474.902 540.267 475.075 540.267 475.228 540.267H475.957C476.494 540.267 477.011 540.19 477.529 540.017C477.97 539.883 478.354 539.634 478.641 539.289C478.929 538.963 479.063 538.483 479.063 537.889C479.082 537.467 478.967 537.045 478.737 536.681C478.507 536.336 478.181 536.067 477.778 535.914C477.261 535.722 476.724 535.626 476.187 535.645C475.842 535.645 475.535 535.645 475.266 535.665C474.998 535.645 474.825 535.665 474.71 535.684Z" fill="#31A8FF"/>
<path d="M490.492 539.404C490.089 539.193 489.648 539.039 489.188 538.943C488.689 538.828 488.171 538.771 487.673 538.771C487.404 538.771 487.117 538.79 486.848 538.867C486.676 538.905 486.522 539.001 486.426 539.135C486.35 539.25 486.311 539.385 486.311 539.5C486.311 539.634 486.369 539.749 486.446 539.845C486.58 539.998 486.733 540.113 486.906 540.209C487.213 540.382 487.539 540.535 487.865 540.65C488.593 540.899 489.303 541.225 489.955 541.647C490.396 541.935 490.76 542.318 491.028 542.779C491.239 543.22 491.354 543.699 491.354 544.178C491.374 544.811 491.182 545.444 490.837 545.981C490.453 546.518 489.935 546.94 489.322 547.189C488.536 547.496 487.711 547.649 486.867 547.63C486.254 547.63 485.621 547.572 485.027 547.457C484.547 547.361 484.087 547.227 483.646 547.016C483.55 546.959 483.493 546.863 483.493 546.748V544.389C483.493 544.351 483.512 544.293 483.55 544.274C483.588 544.255 483.646 544.255 483.665 544.293C484.183 544.6 484.758 544.83 485.353 544.964C485.87 545.099 486.407 545.156 486.944 545.175C487.328 545.195 487.711 545.137 488.075 544.984C488.306 544.888 488.44 544.658 488.44 544.408C488.421 544.178 488.306 543.987 488.114 543.852C487.692 543.584 487.251 543.373 486.772 543.22C486.081 542.989 485.429 542.644 484.835 542.242C484.413 541.935 484.049 541.551 483.799 541.091C483.588 540.669 483.473 540.19 483.473 539.71C483.473 539.135 483.627 538.56 483.934 538.061C484.279 537.525 484.777 537.083 485.353 536.815C486.1 536.47 486.925 536.297 487.749 536.336C488.306 536.336 488.881 536.374 489.437 536.451C489.84 536.508 490.242 536.604 490.607 536.777C490.664 536.796 490.722 536.834 490.741 536.892C490.76 536.949 490.76 537.007 490.76 537.064V539.269C490.76 539.327 490.741 539.365 490.702 539.404C490.626 539.442 490.549 539.442 490.492 539.404Z" fill="#31A8FF"/>
<g opacity="0.6">
<path opacity="0.6" d="M480.732 559.039C479.984 559.039 479.274 558.751 478.757 558.215L462.995 542.453C461.902 541.36 461.902 539.595 462.995 538.502L478.757 522.74C479.85 521.647 481.614 521.647 482.707 522.74L498.469 538.502C499.562 539.595 499.562 541.36 498.469 542.453L482.707 558.215C482.189 558.732 481.479 559.039 480.732 559.039ZM479.293 557.678C480.08 558.464 481.364 558.464 482.151 557.678L497.913 541.916C498.699 541.129 498.699 539.845 497.913 539.059L482.151 523.296C481.364 522.51 480.08 522.51 479.293 523.296L463.531 539.059C462.745 539.845 462.745 541.129 463.531 541.916L479.293 557.678Z" fill="#31A8FF"/>
</g>
</g>
<circle cx="421.315" cy="135.849" r="4.58825" fill="white"/>
<circle cx="590.637" cy="124.208" r="4.58825" fill="white"/>
<circle cx="270.539" cy="298.763" r="4.0647" fill="white"/>
<circle cx="251.288" cy="117.344" r="4.58825" fill="white"/>
<circle cx="462.103" cy="240.626" r="2.90309" fill="white"/>
<circle cx="546.478" cy="358.316" r="2.90309" fill="white"/>
<circle cx="454.819" cy="456.994" r="2.90309" fill="white"/>
<circle cx="2.81861" cy="120.884" r="2.90309" fill="white"/>
<circle cx="148.999" cy="331.742" r="4.58825" fill="white"/>
<circle cx="90.3817" cy="363.856" r="4.58825" fill="white"/>
<circle cx="275.127" cy="511.842" r="4.58825" fill="white"/>
<circle cx="592.042" cy="456.435" r="4.58825" fill="white"/>
<circle cx="317.194" cy="423.667" r="2.06631" fill="white"/>
<circle cx="151.066" cy="389.275" r="2.06631" fill="white"/>
<circle cx="718.288" cy="513.842" r="2.06631" fill="white"/>
<circle cx="604.101" cy="440.861" r="2.06631" fill="white"/>
<circle cx="338.324" cy="291.382" r="2.06631" fill="white"/>
<circle cx="369.927" cy="494.761" r="2.06631" fill="white"/>
<circle cx="621.931" cy="341.081" r="2.06631" fill="white"/>
<circle cx="744.431" cy="226.019" r="2.06631" fill="white"/>
<circle cx="711.264" cy="103.019" r="2.06631" fill="white"/>
<circle cx="647.813" cy="150.347" r="2.06631" fill="white"/>
<circle cx="552.639" cy="536.024" r="4.14239" fill="white"/>
<circle cx="544.412" cy="399.281" r="2.06631" fill="white"/>
<circle cx="560.162" cy="267.96" r="2.06631" fill="white"/>
<circle cx="638.669" cy="179.31" r="2.06631" fill="white"/>
<circle cx="346.408" cy="92.0951" r="2.06631" fill="white"/>
<circle cx="175.173" cy="159.318" r="2.06631" fill="white"/>
<circle cx="185.394" cy="122.705" r="3.3457" fill="white"/>
</g>
<defs>
<linearGradient id="paint0_linear" x1="535.055" y1="223.733" x2="569.443" y2="258.235" gradientUnits="userSpaceOnUse">
<stop stop-color="#387EB8"/>
<stop offset="1" stop-color="#366994"/>
</linearGradient>
<linearGradient id="paint1_linear" x1="556.209" y1="245.682" x2="593.142" y2="281.065" gradientUnits="userSpaceOnUse">
<stop stop-color="#FFE052"/>
<stop offset="1" stop-color="#FFC331"/>
</linearGradient>
<clipPath id="clip0">
<rect width="761" height="597" fill="white"/>
</clipPath>
<clipPath id="clip1">
<rect width="69.5443" height="69.5443" fill="white" transform="translate(528.372 217.505)"/>
</clipPath>
<clipPath id="clip2">
<rect width="54.824" height="54.824" fill="white" transform="translate(375.766 329.261)"/>
</clipPath>
<clipPath id="clip3">
<rect width="54.824" height="54.824" fill="white" transform="translate(89.4019 152.145)"/>
</clipPath>
<clipPath id="clip4">
<rect width="46.0483" height="46.0483" fill="white" transform="translate(183.013 461.025)"/>
</clipPath>
<clipPath id="clip5">
<rect width="46.0205" height="46.0205" fill="white" transform="translate(457.721 517.467)"/>
</clipPath>
</defs>
</svg>
